<svg xmlns="http://www.w3.org/2000/svg" viewBox="0 0 64 64">
  <rect width="64" height="64" rx="12" fill="#0f4c3a"/>
  <path fill="#fff" d="M30 50v-7.2c-6.9-.9-11.4-4.8-12.1-10.4h8.2c.5 2.4 2.7 3.9 6.1 3.9 3.1 0 4.9-1.1 4.9-3.1 0-1.9-1.6-2.8-6.6-3.8-8-1.6-11.5-4.6-11.5-10.1 0-5.3 4.2-9.1 11-10V2h5.2v7.4c6.1 1 10.1 4.6 10.9 9.8h-8c-.5-2-2.3-3.3-5.3-3.3-2.8 0-4.4 1.1-4.4 2.9 0 1.7 1.4 2.5 6.2 3.5 8.4 1.7 12 4.8 12 10.5 0 5.5-4.3 9.3-11.4 10.1V50H30z"/>
  <path fill="#16a34a" d="M12 54h40v6H12z"/>
</svg>
